<svg id="Layer_1" data-name="Layer 1" xmlns="http://www.w3.org/2000/svg" viewBox="0 0 1920 1080"><defs><style>.cls-1,.cls-2,.cls-3,.cls-4{fill:#838383;}.cls-1{opacity:0.7;}.cls-3{opacity:0.3;}.cls-4{opacity:0.5;}.cls-5{fill:#836a88;}.cls-6{opacity:0.6;}.cls-7{fill:#ba5ea8;}.cls-8{opacity:0.21;}</style></defs><circle class="cls-1" cx="130" cy="896" r="6"/><circle class="cls-2" cx="229" cy="928" r="8"/><circle class="cls-2" cx="765" cy="1043" r="8"/><circle class="cls-3" cx="367" cy="911" r="5"/><circle class="cls-4" cx="60" cy="1001" r="5"/><circle class="cls-5" cx="344" cy="1023" r="5"/><circle class="cls-3" cx="196" cy="1028" r="5"/><circle class="cls-4" cx="838" cy="1011" r="4"/><circle class="cls-5" cx="1099" cy="1023" r="5"/><circle class="cls-2" cx="911" cy="1037" r="5"/><circle class="cls-3" cx="1377" cy="1028" r="5"/><circle class="cls-2" cx="1244" cy="1033" r="7"/><circle class="cls-1" cx="1820" cy="940" r="6"/><circle class="cls-5" cx="1742" cy="968" r="4"/><circle class="cls-3" cx="1795" cy="1023" r="3"/><circle class="cls-2" cx="1579" cy="1001" r="6"/><circle class="cls-2" cx="1692" cy="1040" r="3"/><circle class="cls-3" cx="1655" cy="984" r="3"/><circle class="cls-2" cx="1863" cy="977" r="7"/><g class="cls-6"><circle class="cls-7" cx="130" cy="43" r="6"/></g><circle class="cls-7" cx="229" cy="75" r="8"/><circle class="cls-7" cx="136" cy="303" r="8"/><g class="cls-8"><circle class="cls-7" cx="367" cy="58" r="5"/></g><g class="cls-8"><circle class="cls-7" cx="60" cy="148" r="5"/></g><g class="cls-6"><circle class="cls-7" cx="344" cy="170" r="5"/></g><g class="cls-8"><circle class="cls-7" cx="221" cy="259" r="5"/></g><g class="cls-6"><circle class="cls-7" cx="1599" cy="221" r="4"/></g><circle class="cls-7" cx="1820" cy="295" r="5"/><g class="cls-8"><circle class="cls-7" cx="257" cy="367" r="5"/></g><g class="cls-8"><circle class="cls-7" cx="1671" cy="348" r="5"/></g><g class="cls-6"><circle class="cls-7" cx="60" cy="418" r="7"/></g><g class="cls-6"><circle class="cls-7" cx="1681" cy="43" r="6"/></g><g class="cls-8"><circle class="cls-7" cx="1820" cy="66" r="4"/></g><circle class="cls-7" cx="1795" cy="170" r="3"/><circle class="cls-7" cx="1609" cy="134" r="6"/><g class="cls-8"><circle class="cls-7" cx="1692" cy="187" r="3"/></g><g class="cls-8"><circle class="cls-7" cx="1585" cy="73" r="3"/></g><circle class="cls-7" cx="1863" cy="124" r="7"/></svg>