<?xml version="1.0" encoding="utf-8"?>
<!-- Generator: Adobe Illustrator 24.3.0, SVG Export Plug-In . SVG Version: 6.00 Build 0)  -->
<svg version="1.1" id="Layer_1" xmlns="http://www.w3.org/2000/svg" xmlns:xlink="http://www.w3.org/1999/xlink" x="0px" y="0px"
	 viewBox="0 0 1920 277" style="enable-background:new 0 0 1920 277;" xml:space="preserve">
<style type="text/css">
	.st0{fill:#9B4486;}
	.st1{fill:#3D3D3D;}
</style>
<g>
	<rect y="-803" class="st0" width="1920" height="1080"/>
</g>
<path class="st1" d="M1863.89,80.96c-12.9-0.98-22.55,1.54-33.26,8.97c-35.03,24.3-73.75,33.24-114.77,18.15
	c-14.6-5.37-20.88-1.09-30.01,9.48c-36.15,41.84-81.67,50.87-130.23,25.4c-13.97-7.33-24.21-4.2-36.7,1.21
	c-25.01,10.53-44.35,15.49-71.68,7.99c-13.18-3.62-25.73-9.21-37.54-16.07c-13.49-7.83-20.33-23.06-37.84-13.05
	c-18.69,10.68-36.14,23.04-58.22,25.74c-14.87,1.82-30.19,2.21-44.99-0.37c-16.63-2.91-24.29-11.53-38.27-18.06
	c-7.92-3.7-15.65,0.69-22.29,4.98c-49.54,31.96-98.97,31.06-146.26-4.4c-10.78-8.08-19.17-6.65-30.31-3.29
	c-27.25,8.2-57.61,8.37-84.65-0.79c-13.16-4.46-25.59-11.21-36.04-20.42c-9.48-8.36-14.7-24.04-30.15-20.53
	c-6.83,1.55-12.59,5.98-18.31,10.03c-14.83,10.52-35.56,14.74-53.48,15.61c-31.08,1.5-60.74-9.66-85.77-27.6
	c-13.54-9.7-20.45-8.17-32.7,1.36c-44.95,34.95-102.2,34.9-145.22-0.7c-12.33-10.21-23.21-12.24-38.11-11.11
	c-25.65,1.94-52.01-2.32-75.28-13.49c-11.58-5.56-22.26-12.81-31.63-21.59c-9.34-8.75-12.75-18.88-27.06-17.76
	c-12.75,1-23.76,10.07-36.36,12.12c-18.8,3.06-37.71-1.17-54.66-9.44c-12.4-6.05-20.6-7.15-32.43,1.47
	c-39.44,28.74-80.52,29.45-120.96,1.7c-9.78-6.71-16.09-6.11-26.49-0.19C67.3,46.15,31.98,51.85,0,44.36V278h1920V72.98
	C1903.19,79.55,1884.17,82.5,1863.89,80.96z"/>
</svg>
